{
	"asset":{
		"generator":"Khronos glTF Blender I/O v3.6.28",
		"version":"2.0"
	},
	"extensionsUsed":[
		"KHR_lights_punctual"
	],
	"extensionsRequired":[
		"KHR_lights_punctual"
	],
	"extensions":{
		"KHR_lights_punctual":{
			"lights":[
				{
					"color":[
						0.7441378235816956,
						0.6893419027328491,
						0.6893419027328491
					],
					"intensity":54.35141306588226,
					"spot":{
						"innerConeAngle":0.556323685321221,
						"outerConeAngle":0.6544984579086304
					},
					"type":"spot",
					"name":"Light"
				},
				{
					"color":[
						0.651971161365509,
						0.5849320888519287,
						0.6348130106925964
					],
					"intensity":54.35141306588226,
					"spot":{
						"innerConeAngle":0.685081295335424,
						"outerConeAngle":0.805978000164032
					},
					"type":"spot",
					"name":"Light.001"
				}
			]
		}
	},
	"scene":0,
	"scenes":[
		{
			"name":"Scene",
			"nodes":[
				0,
				1,
				2,
				3,
				4,
				5
			]
		}
	],
	"nodes":[
		{
			"mesh":0,
			"name":"Cube.002",
			"scale":[
				1.6469182968139648,
				1.7943171262741089,
				1.8816975355148315
			],
			"translation":[
				1.0250003337860107,
				0.909999668598175,
				0.01500009000301361
			]
		},
		{
			"mesh":1,
			"name":"Cube.001",
			"scale":[
				1.6469182968139648,
				1.7943171262741089,
				1.8816975355148315
			],
			"translation":[
				2.000000238418579,
				0.909999668598175,
				0.01500009000301361
			]
		},
		{
			"extensions":{
				"KHR_lights_punctual":{
					"light":0
				}
			},
			"name":"Light",
			"rotation":[
				0.1889762133359909,
				-0.9237342476844788,
				-0.3295542299747467,
				0.048961617052555084
			],
			"translation":[
				0.5898386240005493,
				2.7222535610198975,
				-2.850714683532715
			]
		},
		{
			"camera":0,
			"name":"Camera",
			"rotation":[
				-0.04139968752861023,
				0.9574142098426819,
				0.22491827607154846,
				0.1762268841266632
			],
			"translation":[
				3.006455659866333,
				3.2987289428710938,
				-4.610967636108398
			]
		},
		{
			"mesh":2,
			"name":"Cube",
			"scale":[
				0.02120862528681755,
				0.17189593613147736,
				0.01811988465487957
			]
		},
		{
			"extensions":{
				"KHR_lights_punctual":{
					"light":1
				}
			},
			"name":"Light.001",
			"rotation":[
				-0.5077329277992249,
				0.4585335850715637,
				0.6596812009811401,
				0.3110867440700531
			],
			"translation":[
				0.534526526927948,
				3.4271152019500732,
				3.959308385848999
			]
		}
	],
	"cameras":[
		{
			"name":"Camera",
			"perspective":{
				"aspectRatio":1.7777777777777777,
				"yfov":0.39959652046304894,
				"zfar":100,
				"znear":0.10000000149011612
			},
			"type":"perspective"
		}
	],
	"materials":[
		{
			"doubleSided":true,
			"name":"Material",
			"pbrMetallicRoughness":{
				"baseColorFactor":[
					0.06624829769134521,
					0.10928165912628174,
					0.4246298372745514,
					1
				],
				"metallicFactor":0,
				"roughnessFactor":0
			}
		},
		{
			"doubleSided":true,
			"name":"Material.001",
			"pbrMetallicRoughness":{
				"baseColorFactor":[
					0.6920859813690186,
					0.18129202723503113,
					0.1262509524822235,
					1
				],
				"metallicFactor":0,
				"roughnessFactor":0.5
			}
		},
		{
			"doubleSided":true,
			"name":"Material.002",
			"pbrMetallicRoughness":{
				"baseColorFactor":[
					0.1699930876493454,
					0.17065012454986572,
					0.13183869421482086,
					1
				],
				"metallicFactor":0,
				"roughnessFactor":0.5
			}
		}
	],
	"meshes":[
		{
			"name":"Cube",
			"primitives":[
				{
					"attributes":{
						"POSITION":0,
						"NORMAL":1,
						"TEXCOORD_0":2
					},
					"indices":3,
					"material":0
				}
			]
		},
		{
			"name":"Cube.017",
			"primitives":[
				{
					"attributes":{
						"POSITION":4,
						"NORMAL":5,
						"TEXCOORD_0":6
					},
					"indices":3,
					"material":1
				}
			]
		},
		{
			"name":"Cube.011",
			"primitives":[
				{
					"attributes":{
						"POSITION":7,
						"NORMAL":8,
						"TEXCOORD_0":9
					},
					"indices":10,
					"material":2
				}
			]
		}
	],
	"accessors":[
		{
			"bufferView":0,
			"componentType":5126,
			"count":24,
			"max":[
				0.2732376158237457,
				0.2507917881011963,
				0.23914575576782227
			],
			"min":[
				2.9802322387695312e-08,
				0,
				0
			],
			"type":"VEC3"
		},
		{
			"bufferView":1,
			"componentType":5126,
			"count":24,
			"type":"VEC3"
		},
		{
			"bufferView":2,
			"componentType":5126,
			"count":24,
			"type":"VEC2"
		},
		{
			"bufferView":3,
			"componentType":5123,
			"count":36,
			"type":"SCALAR"
		},
		{
			"bufferView":4,
			"componentType":5126,
			"count":24,
			"max":[
				-2.9802322387695312e-08,
				0.2507917881011963,
				0.23914575576782227
			],
			"min":[
				-0.2732376158237457,
				0,
				0
			],
			"type":"VEC3"
		},
		{
			"bufferView":5,
			"componentType":5126,
			"count":24,
			"type":"VEC3"
		},
		{
			"bufferView":6,
			"componentType":5126,
			"count":24,
			"type":"VEC2"
		},
		{
			"bufferView":7,
			"componentType":5126,
			"count":695,
			"max":[
				95.7157974243164,
				8.728083610534668,
				56.84363555908203
			],
			"min":[
				-1.52587890625e-05,
				-4.76837158203125e-07,
				9.5367431640625e-07
			],
			"type":"VEC3"
		},
		{
			"bufferView":8,
			"componentType":5126,
			"count":695,
			"type":"VEC3"
		},
		{
			"bufferView":9,
			"componentType":5126,
			"count":695,
			"type":"VEC2"
		},
		{
			"bufferView":10,
			"componentType":5123,
			"count":1482,
			"type":"SCALAR"
		}
	],
	"bufferViews":[
		{
			"buffer":0,
			"byteLength":288,
			"byteOffset":0,
			"target":34962
		},
		{
			"buffer":0,
			"byteLength":288,
			"byteOffset":288,
			"target":34962
		},
		{
			"buffer":0,
			"byteLength":192,
			"byteOffset":576,
			"target":34962
		},
		{
			"buffer":0,
			"byteLength":72,
			"byteOffset":768,
			"target":34963
		},
		{
			"buffer":0,
			"byteLength":288,
			"byteOffset":840,
			"target":34962
		},
		{
			"buffer":0,
			"byteLength":288,
			"byteOffset":1128,
			"target":34962
		},
		{
			"buffer":0,
			"byteLength":192,
			"byteOffset":1416,
			"target":34962
		},
		{
			"buffer":0,
			"byteLength":8340,
			"byteOffset":1608,
			"target":34962
		},
		{
			"buffer":0,
			"byteLength":8340,
			"byteOffset":9948,
			"target":34962
		},
		{
			"buffer":0,
			"byteLength":5560,
			"byteOffset":18288,
			"target":34962
		},
		{
			"buffer":0,
			"byteLength":2964,
			"byteOffset":23848,
			"target":34963
		}
	],
	"buffers":[
		{
			"byteLength":26812,
			"uri":"data:application/octet-stream;base64,"
		}
	]
}
